<svg width="106" height="106" viewBox="0 0 106 106" fill="none" xmlns="http://www.w3.org/2000/svg">
<g filter="url(#filter0_d_485_2)">
<circle cx="53" cy="51" r="41" fill="#545151"/>
</g>
<path d="M35.321 79C37.881 79 39.643 77.086 39.643 73.96C39.643 70.836 37.88 69 35.321 69C32.762 69 31 70.823 31 73.96C31 77.086 32.762 79 35.321 79ZM35.321 77.333C33.885 77.333 32.971 76.005 32.971 73.961C32.971 71.865 33.846 70.654 35.321 70.654C36.797 70.654 37.671 71.864 37.671 73.961C37.671 76.005 36.757 77.333 35.321 77.333ZM44.511 75.172L46.496 78.818H48.65L46.391 74.872C47.501 74.442 48.231 73.57 48.231 72.099C48.231 69.872 46.639 69.182 44.603 69.182H41.234V78.818H43.166V75.172H44.511ZM44.42 73.648H43.166V70.706H44.42C45.673 70.706 46.339 71.057 46.339 72.099C46.339 73.141 45.673 73.649 44.419 73.649L44.42 73.648ZM52.487 69.182H49.837V78.818H52.591C55.437 78.818 57.265 77.19 57.265 73.961C57.265 70.693 55.437 69.182 52.487 69.182ZM52.369 77.268H51.769V70.718H52.369C54.184 70.718 55.294 71.604 55.294 73.961C55.294 76.305 54.184 77.268 52.369 77.268ZM64.784 69.182H58.857V78.818H64.927V77.203H60.79V74.625H64.184V73.01H60.79V70.784H64.785L64.784 69.182ZM69.861 75.172L71.846 78.818H74L71.741 74.872C72.851 74.442 73.582 73.57 73.582 72.099C73.582 69.872 71.989 69.182 69.952 69.182H66.585V78.818H68.517V75.172H69.861ZM69.771 73.648H68.517V70.706H69.77C71.023 70.706 71.69 71.057 71.69 72.099C71.69 73.141 71.023 73.649 69.77 73.649L69.771 73.648Z" fill="white"/>
<g clip-path="url(#clip0_485_2)">
<path d="M74.1765 30.2941C74.1765 27.3707 71.8058 25 68.8824 25H40.2941C37.3707 25 35 27.3707 35 30.2941C35 32.4647 36.3066 34.3304 38.1765 35.1478V61H71V35.1478C72.8699 34.3304 74.1765 32.4647 74.1765 30.2941Z" fill="#F5BC00"/>
<path d="M60.2094 25H37.3197C34.768 25 32.4227 26.7142 31.9293 29.2184C31.4147 31.8336 32.8271 34.198 34.9999 35.1478V61H62.5293V35.1478C64.702 34.198 66.1144 31.8336 65.5999 29.2184C65.1064 26.7142 62.7611 25 60.2094 25Z" fill="#FADB00"/>
<path d="M48.2849 49.337C50.0478 49.337 51.4783 47.9298 51.4783 46.1934H45.0925C45.0915 47.9298 46.5209 49.337 48.2849 49.337Z" fill="#3D3D3D"/>
<path d="M41.8377 46.1934C42.7149 46.1934 43.426 45.4824 43.426 44.6052C43.426 43.728 42.7149 43.017 41.8377 43.017C40.9606 43.017 40.2495 43.728 40.2495 44.6052C40.2495 45.4824 40.9606 46.1934 41.8377 46.1934Z" fill="#3D3D3D"/>
<path d="M54.5882 46.1934C55.4654 46.1934 56.1765 45.4824 56.1765 44.6052C56.1765 43.728 55.4654 43.017 54.5882 43.017C53.7111 43.017 53 43.728 53 44.6052C53 45.4824 53.7111 46.1934 54.5882 46.1934Z" fill="#3D3D3D"/>
</g>
<defs>
<filter id="filter0_d_485_2" x="0" y="0" width="106" height="106" filterUnits="userSpaceOnUse" color-interpolation-filters="sRGB">
<feFlood flood-opacity="0" result="BackgroundImageFix"/>
<feColorMatrix in="SourceAlpha" type="matrix" values="0 0 0 0 0 0 0 0 0 0 0 0 0 0 0 0 0 0 127 0" result="hardAlpha"/>
<feOffset dy="2"/>
<feGaussianBlur stdDeviation="6"/>
<feComposite in2="hardAlpha" operator="out"/>
<feColorMatrix type="matrix" values="0 0 0 0 0 0 0 0 0 0 0 0 0 0 0 0 0 0 0.35 0"/>
<feBlend mode="normal" in2="BackgroundImageFix" result="effect1_dropShadow_485_2"/>
<feBlend mode="normal" in="SourceGraphic" in2="effect1_dropShadow_485_2" result="shape"/>
</filter>
<clipPath id="clip0_485_2">
<rect width="54.6667" height="50.4935" fill="white" transform="translate(25.6667 10)"/>
</clipPath>
</defs>
</svg>
