<svg width="106" height="252" viewBox="0 0 106 252" fill="none" xmlns="http://www.w3.org/2000/svg">
<rect x="12.5" y="0.5" width="81" height="236" rx="40.5" fill="white" stroke="#B3B3B3"/>
<circle cx="53" cy="41" r="33" fill="#D17A70" fill-opacity="0.25"/>
<circle cx="53" cy="115" r="33" fill="#D17A70" fill-opacity="0.25"/>
<path d="M40.1305 64.02H38.6305V52.968H40.1305V64.02ZM37.8025 53.22V63.54H36.3265V58.404H34.7545C34.1665 59.76 33.1465 60.888 31.4545 61.86L30.5785 60.756C31.9825 59.94 32.8465 59.028 33.3625 57.972L30.8185 58.236L30.6385 56.916L33.7825 56.748C33.8785 56.352 33.9385 55.932 33.9745 55.488H31.1905V54.216H35.4985C35.4985 55.272 35.4145 56.232 35.1865 57.144H36.3265V53.22H37.8025ZM50.7856 59.28H49.1416V52.98H50.7856V59.28ZM47.8096 56.136C47.8096 57.72 46.6096 58.776 44.8816 58.776C43.1536 58.776 41.9536 57.72 41.9536 56.136C41.9536 54.54 43.1536 53.496 44.8816 53.496C46.6096 53.496 47.8096 54.54 47.8096 56.136ZM43.5376 56.136C43.5376 57 44.0656 57.444 44.8816 57.444C45.6976 57.444 46.2256 57 46.2256 56.136C46.2256 55.272 45.6976 54.84 44.8816 54.84C44.0656 54.84 43.5376 55.272 43.5376 56.136ZM50.7856 59.772V64.02H49.1656V62.832L43.2016 63.156L43.0336 61.932L49.1656 61.716V61.032H43.2496V59.772H50.7856ZM64.8314 64.02H63.3314V52.968H64.8314V64.02ZM62.6114 53.16V63.528H61.1354V60.108H59.8754C59.4554 61.176 58.7594 61.788 57.8474 61.788C56.3714 61.788 55.4474 60.276 55.4474 57.768C55.4474 55.272 56.3714 53.76 57.8474 53.76C58.7594 53.76 59.4434 54.348 59.8634 55.416H61.1354V53.16H62.6114ZM57.8474 60.3C58.4594 60.3 58.8194 59.46 58.8194 57.768C58.8194 56.076 58.4594 55.248 57.8474 55.248C57.2234 55.248 56.8634 56.076 56.8634 57.768C56.8634 59.46 57.2234 60.3 57.8474 60.3ZM61.1354 56.688H60.1634C60.2114 57.024 60.2354 57.384 60.2354 57.768C60.2354 58.14 60.2114 58.5 60.1754 58.824H61.1354V56.688ZM75.0664 56.808H76.4824V58.104H75.0664V59.496H73.4824V52.98H75.0664V54.42H76.4824V55.704H75.0664V56.808ZM72.4384 56.292C72.4384 57.876 71.1424 58.992 69.4504 58.992C67.7464 58.992 66.4504 57.876 66.4504 56.292C66.4504 54.72 67.7464 53.58 69.4504 53.58C71.1424 53.58 72.4384 54.72 72.4384 56.292ZM67.9984 56.292C67.9984 57.156 68.5864 57.66 69.4504 57.66C70.2784 57.66 70.9024 57.156 70.9024 56.292C70.9024 55.428 70.2784 54.924 69.4504 54.924C68.5864 54.924 67.9984 55.428 67.9984 56.292ZM75.0664 59.94V64.044H73.4824V61.212H67.6984V59.94H75.0664Z" fill="black"/>
<path d="M38.4519 129.18C38.7039 128.172 38.7399 127.452 38.7399 126.72H32.6679V125.472H40.3239V126.384C40.3239 127.26 40.3119 128.184 40.0119 129.336L38.4519 129.18ZM41.4999 131.172H31.5519V129.924H35.2359V127.992H36.8199V129.924H41.4999V131.172ZM36.4599 131.868C38.8479 131.868 40.3839 132.66 40.3839 133.956C40.3839 135.24 38.8479 136.032 36.4599 136.032C34.0839 136.032 32.5479 135.24 32.5479 133.956C32.5479 132.66 34.0839 131.868 36.4599 131.868ZM36.4599 134.844C37.9599 134.844 38.8119 134.544 38.8119 133.956C38.8119 133.344 37.9599 133.056 36.4599 133.056C34.9599 133.056 34.1199 133.344 34.1199 133.956C34.1199 134.544 34.9599 134.844 36.4599 134.844ZM52.5149 131.436H42.5189V130.176H46.7189V129.264H43.7309V125.448H51.3149V126.708H45.3029V128.004H51.3749V129.264H48.3029V130.176H52.5149V131.436ZM47.4749 131.976C49.8629 131.976 51.3149 132.708 51.3149 134.016C51.3149 135.312 49.8629 136.044 47.4749 136.044C45.0869 136.044 43.6469 135.312 43.6469 134.016C43.6469 132.708 45.0869 131.976 47.4749 131.976ZM47.4749 134.844C48.9749 134.844 49.7069 134.592 49.7069 134.016C49.7069 133.452 48.9629 133.176 47.4749 133.176C45.9869 133.176 45.2429 133.452 45.2429 134.016C45.2429 134.592 45.9749 134.844 47.4749 134.844ZM59.234 131.592V136.032H57.626V131.592H53.498V130.32H60.458C60.734 128.916 60.758 127.848 60.758 126.888H54.638V125.616H62.306V126.612C62.306 127.656 62.306 128.772 62.03 130.32H63.482V131.592H59.234ZM73.9451 136.02H72.4451V130.464H71.5211V135.528H70.0451V125.148H71.5211V129.192H72.4451V124.968H73.9451V136.02ZM69.1331 126.108V133.272H64.7771V126.108H69.1331ZM67.6691 132.036V127.356H66.2531V132.036H67.6691Z" fill="black"/>
<g filter="url(#filter0_d_485_32)">
<circle cx="53" cy="197" r="41" fill="#545151"/>
</g>
<path d="M35.321 225C37.881 225 39.643 223.086 39.643 219.96C39.643 216.836 37.88 215 35.321 215C32.762 215 31 216.823 31 219.96C31 223.086 32.762 225 35.321 225ZM35.321 223.333C33.885 223.333 32.971 222.005 32.971 219.961C32.971 217.865 33.846 216.654 35.321 216.654C36.797 216.654 37.671 217.864 37.671 219.961C37.671 222.005 36.757 223.333 35.321 223.333ZM44.511 221.172L46.496 224.818H48.65L46.391 220.872C47.501 220.442 48.231 219.57 48.231 218.099C48.231 215.872 46.639 215.182 44.603 215.182H41.234V224.818H43.166V221.172H44.511ZM44.42 219.648H43.166V216.706H44.42C45.673 216.706 46.339 217.057 46.339 218.099C46.339 219.141 45.673 219.649 44.419 219.649L44.42 219.648ZM52.487 215.182H49.837V224.818H52.591C55.437 224.818 57.265 223.19 57.265 219.961C57.265 216.693 55.437 215.182 52.487 215.182ZM52.369 223.268H51.769V216.718H52.369C54.184 216.718 55.294 217.604 55.294 219.961C55.294 222.305 54.184 223.268 52.369 223.268ZM64.784 215.182H58.857V224.818H64.927V223.203H60.79V220.625H64.184V219.01H60.79V216.784H64.785L64.784 215.182ZM69.861 221.172L71.846 224.818H74L71.741 220.872C72.851 220.442 73.582 219.57 73.582 218.099C73.582 215.872 71.989 215.182 69.952 215.182H66.585V224.818H68.517V221.172H69.861ZM69.771 219.648H68.517V216.706H69.77C71.023 216.706 71.69 217.057 71.69 218.099C71.69 219.141 71.023 219.649 69.77 219.649L69.771 219.648Z" fill="white"/>
<g clip-path="url(#clip0_485_32)">
<path d="M74.1765 176.294C74.1765 173.371 71.8058 171 68.8824 171H40.2941C37.3707 171 35 173.371 35 176.294C35 178.465 36.3066 180.33 38.1765 181.148V207H71V181.148C72.8699 180.33 74.1765 178.465 74.1765 176.294Z" fill="#F5BC00"/>
<path d="M60.2094 171H37.3197C34.768 171 32.4227 172.714 31.9293 175.218C31.4147 177.834 32.8271 180.198 34.9999 181.148V207H62.5293V181.148C64.702 180.198 66.1144 177.834 65.5999 175.218C65.1064 172.714 62.7611 171 60.2094 171Z" fill="#FADB00"/>
<path d="M48.2849 195.337C50.0478 195.337 51.4783 193.93 51.4783 192.193H45.0925C45.0915 193.93 46.5209 195.337 48.2849 195.337Z" fill="#3D3D3D"/>
<path d="M41.8377 192.193C42.7149 192.193 43.426 191.482 43.426 190.605C43.426 189.728 42.7149 189.017 41.8377 189.017C40.9606 189.017 40.2495 189.728 40.2495 190.605C40.2495 191.482 40.9606 192.193 41.8377 192.193Z" fill="#3D3D3D"/>
<path d="M54.5882 192.193C55.4654 192.193 56.1765 191.482 56.1765 190.605C56.1765 189.728 55.4654 189.017 54.5882 189.017C53.7111 189.017 53 189.728 53 190.605C53 191.482 53.7111 192.193 54.5882 192.193Z" fill="#3D3D3D"/>
</g>
<path d="M61.3602 24.6399H60.4802V25.5199H61.3602V24.6399Z" fill="#1461DD"/>
<path d="M54.7601 24.6399H53.8801V25.5199H54.7601V24.6399Z" fill="#1461DD"/>
<path d="M48.1603 24.6399H47.2803V25.5199H48.1603V24.6399Z" fill="#2486FC"/>
<path d="M63.1202 24.6399H42.8804C42.2969 24.6399 41.7374 24.8717 41.3248 25.2843C40.9122 25.6968 40.6804 26.2564 40.6804 26.8399V41.7997C40.6804 42.3832 40.9122 42.9428 41.3248 43.3554C41.7374 43.7679 42.2969 43.9997 42.8804 43.9997H63.1202C63.7037 43.9997 64.2633 43.7679 64.6759 43.3554C65.0884 42.9428 65.3202 42.3832 65.3202 41.7997V26.8399C65.3202 26.2564 65.0884 25.6968 64.6759 25.2843C64.2633 24.8717 63.7037 24.6399 63.1202 24.6399Z" fill="#EEF4FF"/>
<path d="M65.3201 26.8399V41.7997C65.3199 42.3832 65.0881 42.9426 64.6755 43.3551C64.263 43.7677 63.7036 43.9995 63.1202 43.9997H53.0002V24.6399H63.1202C63.7036 24.6401 64.263 24.872 64.6755 25.2845C65.0881 25.697 65.3199 26.2565 65.3201 26.8399Z" fill="#D1DBED"/>
<path d="M65.3202 26.8399V29.0399H40.6804V26.8399C40.6806 26.2565 40.9125 25.697 41.325 25.2845C41.7375 24.872 42.297 24.6401 42.8804 24.6399H63.1202C63.7036 24.6401 64.2631 24.872 64.6756 25.2845C65.0882 25.697 65.32 26.2565 65.3202 26.8399Z" fill="#53A6F9"/>
<path d="M65.3201 26.8399V29.0399H53.0002V24.6399H63.1202C63.7036 24.6401 64.263 24.872 64.6755 25.2845C65.0881 25.697 65.3199 26.2565 65.3201 26.8399Z" fill="#2486FC"/>
<path d="M60.4803 24.64V23.76C60.4803 23.5266 60.3876 23.3028 60.2226 23.1377C60.0575 22.9727 59.8337 22.88 59.6003 22.88C59.3669 22.88 59.1431 22.9727 58.9781 23.1377C58.813 23.3028 58.7203 23.5266 58.7203 23.76V26.4C58.7203 26.6334 58.813 26.8572 58.9781 27.0222C59.1431 27.1872 59.3669 27.28 59.6003 27.28C59.8337 27.28 60.0575 27.1872 60.2226 27.0222C60.3876 26.8572 60.4803 26.6334 60.4803 26.4H61.3603C61.3603 26.8667 61.1749 27.3144 60.8448 27.6445C60.5148 27.9745 60.0671 28.1599 59.6003 28.1599C59.1335 28.1599 58.6859 27.9745 58.3558 27.6445C58.0258 27.3144 57.8403 26.8667 57.8403 26.4V23.76C57.8403 23.2932 58.0258 22.8455 58.3558 22.5155C58.6859 22.1854 59.1335 22 59.6003 22C60.0671 22 60.5148 22.1854 60.8448 22.5155C61.1749 22.8455 61.3603 23.2932 61.3603 23.76V24.64H60.4803Z" fill="#1461DD"/>
<path d="M53.88 24.64V23.76C53.88 23.5266 53.7873 23.3028 53.6222 23.1377C53.4572 22.9727 53.2334 22.88 53 22.88C52.7666 22.88 52.5428 22.9727 52.3777 23.1377C52.2127 23.3028 52.12 23.5266 52.12 23.76V26.4C52.12 26.6334 52.2127 26.8572 52.3777 27.0222C52.5428 27.1872 52.7666 27.28 53 27.28C53.2334 27.28 53.4572 27.1872 53.6222 27.0222C53.7873 26.8572 53.88 26.6334 53.88 26.4H54.76C54.76 26.8667 54.5745 27.3144 54.2445 27.6445C53.9144 27.9745 53.4668 28.1599 53 28.1599C52.5332 28.1599 52.0855 27.9745 51.7555 27.6445C51.4254 27.3144 51.24 26.8667 51.24 26.4V23.76C51.24 23.2932 51.4254 22.8455 51.7555 22.5155C52.0855 22.1854 52.5332 22 53 22C53.4668 22 53.9144 22.1854 54.2445 22.5155C54.5745 22.8455 54.76 23.2932 54.76 23.76V24.64H53.88Z" fill="#2486FC"/>
<path d="M47.2801 24.64V23.76C47.2801 23.5266 47.1874 23.3028 47.0224 23.1377C46.8573 22.9727 46.6335 22.88 46.4001 22.88C46.1667 22.88 45.9429 22.9727 45.7779 23.1377C45.6128 23.3028 45.5201 23.5266 45.5201 23.76V26.4C45.5201 26.6334 45.6128 26.8572 45.7779 27.0222C45.9429 27.1872 46.1667 27.28 46.4001 27.28C46.6335 27.28 46.8573 27.1872 47.0224 27.0222C47.1874 26.8572 47.2801 26.6334 47.2801 26.4H48.1601C48.1601 26.8667 47.9747 27.3144 47.6446 27.6445C47.3146 27.9745 46.8669 28.1599 46.4001 28.1599C45.9333 28.1599 45.4857 27.9745 45.1556 27.6445C44.8256 27.3144 44.6401 26.8667 44.6401 26.4V23.76C44.6401 23.2932 44.8256 22.8455 45.1556 22.5155C45.4857 22.1854 45.9333 22 46.4001 22C46.8669 22 47.3146 22.1854 47.6446 22.5155C47.9747 22.8455 48.1601 23.2932 48.1601 23.76V24.64H47.2801Z" fill="#2486FC"/>
<path d="M54.7602 23.76V24.64H53.8802V23.76C53.8796 23.5268 53.7866 23.3034 53.6217 23.1385C53.4569 22.9736 53.2334 22.8807 53.0002 22.88V22C53.2314 21.9999 53.4603 22.0454 53.6738 22.1338C53.8874 22.2223 54.0814 22.3519 54.2449 22.5153C54.4083 22.6788 54.538 22.8728 54.6264 23.0864C54.7148 23.3 54.7603 23.5288 54.7602 23.76Z" fill="#1461DD"/>
<path d="M54.7602 26.3999C54.7603 26.631 54.7148 26.8599 54.6264 27.0735C54.538 27.2871 54.4083 27.4811 54.2449 27.6445C54.0814 27.808 53.8874 27.9376 53.6738 28.026C53.4603 28.1145 53.2314 28.16 53.0002 28.1599V27.2799C53.2334 27.2792 53.4569 27.1863 53.6217 27.0214C53.7866 26.8565 53.8796 26.6331 53.8802 26.3999H54.7602Z" fill="#1461DD"/>
<path d="M65.1923 37.7123L59.4723 43.4322C59.4049 43.4953 59.321 43.538 59.2303 43.5554L56.5903 43.9954C56.5671 43.9991 56.5435 44.0005 56.5199 43.9998C56.456 44.0003 56.3927 43.9868 56.3346 43.9602C56.2764 43.9336 56.2248 43.8947 56.1833 43.846C56.1418 43.7974 56.1114 43.7403 56.0943 43.6787C56.0772 43.6171 56.0738 43.5525 56.0843 43.4894L56.5243 40.8494C56.5418 40.7588 56.5845 40.6749 56.6475 40.6074L60.9551 36.2999L62.3675 34.8875C62.4506 34.805 62.5628 34.7588 62.6799 34.7588C62.7969 34.7588 62.9092 34.805 62.9923 34.8875L65.1923 37.0875C65.2747 37.1705 65.321 37.2828 65.321 37.3999C65.321 37.5169 65.2747 37.6292 65.1923 37.7123Z" fill="#2486FC"/>
<path d="M59.5647 43.3399L59.4723 43.4323C59.4049 43.4954 59.321 43.5381 59.2303 43.5555L56.5903 43.9955C56.5671 43.9992 56.5435 44.0006 56.5199 43.9999C56.456 44.0004 56.3927 43.9869 56.3346 43.9603C56.2764 43.9337 56.2248 43.8948 56.1833 43.8461C56.1418 43.7975 56.1114 43.7404 56.0943 43.6788C56.0772 43.6172 56.0738 43.5526 56.0843 43.4895L56.5243 40.8495C56.5418 40.7589 56.5845 40.675 56.6475 40.6075L56.7399 40.5151L59.5647 43.3399Z" fill="#1461DD"/>
<path d="M65.1922 37.7123L63.7799 39.1246L60.9551 36.2999L62.3675 34.8875C62.4505 34.805 62.5628 34.7588 62.6799 34.7588C62.7969 34.7588 62.9092 34.805 62.9923 34.8875L65.1922 37.0875C65.2747 37.1705 65.3209 37.2828 65.3209 37.3999C65.3209 37.5169 65.2747 37.6292 65.1922 37.7123Z" fill="#1461DD"/>
<path d="M53.8801 35.6398H52.1201V37.3998H53.8801V35.6398Z" fill="#53A6F9"/>
<path d="M57.8403 35.6398H56.0803V37.3998H57.8403V35.6398Z" fill="#2486FC"/>
<path d="M53.8801 39.1598H52.1201V40.9198H53.8801V39.1598Z" fill="#53A6F9"/>
<path d="M53.8801 32.1199H52.1201V33.8799H53.8801V32.1199Z" fill="#53A6F9"/>
<path d="M49.9201 35.6398H48.1602V37.3998H49.9201V35.6398Z" fill="#53A6F9"/>
<path d="M49.9201 39.1598H48.1602V40.9198H49.9201V39.1598Z" fill="#53A6F9"/>
<path d="M49.9201 32.1199H48.1602V33.8799H49.9201V32.1199Z" fill="#53A6F9"/>
<path d="M45.9602 35.6398H44.2002V37.3998H45.9602V35.6398Z" fill="#53A6F9"/>
<path d="M45.9602 39.1598H44.2002V40.9198H45.9602V39.1598Z" fill="#53A6F9"/>
<path d="M45.9602 32.1199H44.2002V33.8799H45.9602V32.1199Z" fill="#53A6F9"/>
<path d="M56.0803 33.8799H57.8403V32.1199H56.0803V33.8799Z" fill="#2486FC"/>
<path d="M60.0403 33.8799H61.8003V32.1199H60.0403V33.8799Z" fill="#2486FC"/>
<path d="M53.8802 32.1199H53.0002V33.8799H53.8802V32.1199Z" fill="#2486FC"/>
<path d="M53.8802 35.6398H53.0002V37.3998H53.8802V35.6398Z" fill="#2486FC"/>
<path d="M53.8802 39.1598H53.0002V40.9198H53.8802V39.1598Z" fill="#2486FC"/>
<path d="M61.995 106.727C62.6345 106.156 63.0855 105.404 63.2882 104.571C63.4909 103.738 63.4358 102.863 63.1302 102.062C62.8246 101.261 62.2829 100.571 61.5769 100.085C60.8708 99.5987 60.0337 99.3383 59.1763 99.3383C58.319 99.3383 57.4819 99.5987 56.7758 100.085C56.0698 100.571 55.5281 101.261 55.2225 102.062C54.9169 102.863 54.8618 103.738 55.0645 104.571C55.2672 105.404 55.7182 106.156 56.3576 106.727C54.2565 107.693 52.8391 109.806 52.4136 112.784C52.3964 112.904 52.4052 113.026 52.4395 113.143C52.4737 113.259 52.5326 113.367 52.6121 113.458C52.6917 113.55 52.79 113.623 52.9004 113.674C53.0108 113.724 53.1307 113.75 53.2521 113.75H65.1012C65.2225 113.75 65.3423 113.724 65.4527 113.674C65.563 113.623 65.6612 113.55 65.7407 113.458C65.8201 113.366 65.879 113.259 65.9132 113.143C65.9474 113.026 65.9563 112.904 65.9391 112.784C65.5138 109.806 64.0967 107.693 61.995 106.727Z" fill="#53A6F9"/>
<path d="M56.5134 112.576C56.535 112.723 56.525 112.872 56.4842 113.014C56.4433 113.156 56.3725 113.288 56.2766 113.4C56.1774 113.509 56.0567 113.597 55.9221 113.657C55.7874 113.717 55.6417 113.749 55.4942 113.75H41.0825C40.935 113.749 40.7893 113.717 40.6546 113.657C40.52 113.597 40.3993 113.509 40.3001 113.4C40.2042 113.288 40.1334 113.156 40.0926 113.014C40.0517 112.872 40.0418 112.723 40.0634 112.576C40.5781 108.953 42.3075 106.379 44.8604 105.206C44.321 104.729 43.8889 104.142 43.5926 103.486C43.2963 102.829 43.1424 102.117 43.1413 101.397C43.1413 100.032 43.6836 98.7228 44.6488 97.7575C45.6141 96.7923 46.9233 96.25 48.2884 96.25C49.6534 96.25 50.9626 96.7923 51.9279 97.7575C52.8931 98.7228 53.4354 100.032 53.4354 101.397C53.4343 102.117 53.2805 102.829 52.9841 103.486C52.6878 104.142 52.2557 104.729 51.7163 105.206C54.2692 106.379 55.9987 108.953 56.5134 112.576Z" fill="#53A6F9"/>
<path d="M56.5133 112.576C56.5349 112.723 56.525 112.872 56.4841 113.014C56.4433 113.156 56.3725 113.288 56.2766 113.4C56.1774 113.509 56.0567 113.597 55.922 113.657C55.7874 113.717 55.6417 113.749 55.4942 113.75H48.2883V96.25C49.6533 96.2505 50.9622 96.7929 51.9273 97.7581C52.8925 98.7232 53.4349 100.032 53.4354 101.397C53.4342 102.117 53.2804 102.829 52.9841 103.486C52.6878 104.142 52.2557 104.729 51.7163 105.206C54.2692 106.379 55.9986 108.953 56.5133 112.576Z" fill="#2486FC"/>
<defs>
<filter id="filter0_d_485_32" x="0" y="146" width="106" height="106" filterUnits="userSpaceOnUse" color-interpolation-filters="sRGB">
<feFlood flood-opacity="0" result="BackgroundImageFix"/>
<feColorMatrix in="SourceAlpha" type="matrix" values="0 0 0 0 0 0 0 0 0 0 0 0 0 0 0 0 0 0 127 0" result="hardAlpha"/>
<feOffset dy="2"/>
<feGaussianBlur stdDeviation="6"/>
<feComposite in2="hardAlpha" operator="out"/>
<feColorMatrix type="matrix" values="0 0 0 0 0 0 0 0 0 0 0 0 0 0 0 0 0 0 0.35 0"/>
<feBlend mode="normal" in2="BackgroundImageFix" result="effect1_dropShadow_485_32"/>
<feBlend mode="normal" in="SourceGraphic" in2="effect1_dropShadow_485_32" result="shape"/>
</filter>
<clipPath id="clip0_485_32">
<rect width="54.6667" height="50.4935" fill="white" transform="translate(25.6667 156)"/>
</clipPath>
</defs>
</svg>
